<?xml version="1.0" encoding="UTF-8"?>
<svg id="Layer_2" data-name="Layer 2" xmlns="http://www.w3.org/2000/svg" viewBox="0 0 234.39 234.39">
  <defs>
    <style>
      .cls-1 {
        fill: #fff;
      }

      .cls-2 {
        fill: #e02127;
      }

      .cls-3 {
        fill: #921b1e;
      }
    </style>
  </defs>
  <g id="Layer_1-2" data-name="Layer 1">
    <g>
      <circle class="cls-1" cx="117.2" cy="117.2" r="117.2"/>
      <circle class="cls-3" cx="117.2" cy="117.2" r="88.63"/>
      <path class="cls-2" d="M66.65,58.83l3.64,1.31c1.94,.7,2.88,2.9,2.03,4.78l-3.19,7.11c-.7,1.56-.18,3.41,1.23,4.37h0c.98,.67,1.56,1.78,1.54,2.96l-.1,9.36c-.03,2.77,3,4.51,5.37,3.07l20.42-12.34c.85-.51,1.44-1.36,1.64-2.33l4.44-22.04c.31-1.55,1.62-2.71,3.2-2.83,4.92-.39,15.14-1.53,17.49-4.32,2.09-2.49,5.59,.63,7.67,2.96,1.08,1.21,2.84,1.54,4.28,.78l6.18-3.23c2.75-1.44,2.46-5.47-.47-6.48-7.45-2.57-19.79-5.84-33.12-5.21-15.19,.71-33.43,10.18-42.85,15.69-2.6,1.52-2.25,5.37,.59,6.39Z"/>
      <path class="cls-2" d="M160.25,53.02l-7.8,5.01c-2.25,1.45-2.98,4.41-1.64,6.73,.32,.55,.65,1.11,.96,1.65,1.2,2.05,.8,4.66-.96,6.26l-4.43,4.01c-3.02,2.74-1.69,7.75,2.29,8.63h.02c2.04,.45,3.59,2.12,3.89,4.19l.91,6.25c.53,3.64,4.66,5.5,7.74,3.48l7.89-5.2c.63-.42,1.35-.68,2.1-.78l9.48-1.25c1.67-.22,3.13-1.27,3.86-2.79l4.36-8.99c.77-1.59,.65-3.45-.31-4.93-3.05-4.69-10.74-15.08-23.12-22.37-1.63-.96-3.67-.9-5.25,.12Z"/>
      <path class="cls-1" d="M151.92,153.52v.37c0,4.5-3.65,8.14-8.14,8.14h-53.15c-4.5,0-8.14-3.65-8.14-8.14V80.5c0-4.5,3.65-8.14,8.14-8.14h51.49c4.5,0,8.14,3.65,8.14,8.14v.37c0,4.5-3.65,8.14-8.14,8.14h-39.01v19.34h33.49c4.5,0,8.14,3.65,8.14,8.14h0c0,4.5-3.65,8.14-8.14,8.14h-33.49v20.74h40.66c4.5,0,8.14,3.65,8.14,8.14Z"/>
      <path class="cls-3" d="M76.83,161.48c-.18,.55-10.67,21.2-16.98,33.61-1.9,3.73,1.34,8,5.44,7.19l44.41-8.71-32.87-32.09Z"/>
      <path class="cls-2" d="M70.85,162.08l-7.93,7.43c-1.4,1.31-1.34,3.56,.14,4.79l6.43,5.35c.57,.48,1.3,.74,2.05,.74h5.12c.86,0,1.69,.35,2.29,.97l3.75,3.85c1.35,1.38,3.61,1.27,4.8-.25l1.35-1.71c1.2-1.52,.79-3.74-.87-4.73l-4.69-2.8c-1.35-.81-1.92-2.48-1.33-3.94l1.59-3.98c.7-1.75-.26-3.73-2.07-4.26l-7.54-2.21c-1.09-.32-2.26-.04-3.09,.73Z"/>
    </g>
  </g>
</svg>