<?xml version="1.0" encoding="UTF-8"?>
<svg id="Layer_2" data-name="Layer 2" xmlns="http://www.w3.org/2000/svg" viewBox="0 0 190.16 193.5">
  <defs>
    <style>
      .cls-1 {
        fill: none;
        stroke: #921b1e;
        stroke-linecap: round;
        stroke-linejoin: round;
        stroke-width: 17px;
      }

      .cls-2 {
        fill: #e02127;
      }

      .cls-3 {
        fill: #921b1e;
      }
    </style>
  </defs>
  <g id="Layer_1-2" data-name="Layer 1">
    <g>
      <g>
        <path class="cls-1" d="M176.61,65.88c3.27,9.12,5.05,18.96,5.05,29.2"/>
        <path class="cls-1" d="M8.5,95.08C8.5,47.26,47.26,8.5,95.08,8.5c12.67,0,24.71,2.72,35.56,7.62,11.34,5.11,21.38,12.6,29.49,21.83"/>
      </g>
      <path class="cls-3" d="M174.38,133.37c1.95,3.12,1.95,7.07,0,10.19-16.46,26.29-45.67,43.77-78.95,43.77-10.68,0-20.94-1.8-30.49-5.11l-23.25,10.9c-3.35,1.57-6.86-1.86-5.36-5.25l7.23-16.33c-10.87-7.3-20.12-16.85-27.08-27.97-1.95-3.12-1.96-7.08,0-10.2,16.45-26.29,45.67-43.76,78.96-43.76s62.5,17.48,78.95,43.76Z"/>
      <path class="cls-2" d="M48.42,119.01l3.64,1.31c1.94,.7,2.88,2.9,2.03,4.78l-3.19,7.11c-.7,1.56-.18,3.41,1.23,4.37h0c.98,.67,1.56,1.78,1.54,2.96l-.1,9.36c-.03,2.77,3,4.51,5.37,3.07l20.42-12.34c.85-.51,1.44-1.36,1.64-2.33l4.44-22.04c.31-1.55,1.62-2.71,3.2-2.83,4.92-.39,15.14-1.53,17.49-4.32,2.09-2.49,5.59,.63,7.67,2.96,1.08,1.21,2.84,1.54,4.28,.78l6.18-3.23c2.75-1.44,2.46-5.47-.47-6.48-7.45-2.57-19.79-5.84-33.12-5.21-15.19,.71-33.43,10.18-42.85,15.69-2.6,1.52-2.25,5.37,.59,6.39Z"/>
      <path class="cls-2" d="M94.09,154.16l-7.93,7.43c-1.4,1.31-1.34,3.56,.14,4.79l6.43,5.35c.57,.48,1.3,.74,2.05,.74h5.12c.86,0,1.69,.35,2.29,.97l3.75,3.85c1.35,1.38,3.61,1.27,4.8-.25l1.35-1.71c1.2-1.52,.79-3.74-.87-4.73l-4.69-2.8c-1.35-.81-1.92-2.48-1.33-3.94l1.59-3.98c.7-1.75-.26-3.73-2.07-4.26l-7.54-2.21c-1.09-.32-2.26-.04-3.09,.73Z"/>
      <path class="cls-2" d="M137.58,110.58l-7.8,5.01c-2.25,1.45-2.98,4.41-1.64,6.73,.32,.55,.65,1.11,.96,1.65,1.2,2.05,.8,4.66-.96,6.26l-4.43,4.01c-3.02,2.74-1.69,7.75,2.29,8.63h.02c2.04,.45,3.59,2.12,3.89,4.19l.91,6.25c.53,3.64,4.66,5.5,7.74,3.48l7.89-5.2c.63-.42,1.35-.68,2.1-.78l9.48-1.25c1.67-.22,3.13-1.27,3.86-2.79l4.36-8.99c.77-1.59,.65-3.45-.31-4.93-3.05-4.69-10.74-15.08-23.12-22.37-1.63-.96-3.67-.9-5.25,.12Z"/>
      <g>
        <rect class="cls-3" x="89.08" y="47.12" width="12" height="33.07" rx="6" ry="6"/>
        <rect class="cls-3" x="107.71" y="53.78" width="12" height="20.91" rx="6" ry="6"/>
        <rect class="cls-3" x="70.45" y="53.78" width="12" height="20.91" rx="6" ry="6"/>
        <rect class="cls-3" x="126.34" y="56.85" width="12" height="14.78" rx="6" ry="6"/>
        <rect class="cls-3" x="51.82" y="56.85" width="12" height="14.78" rx="6" ry="6"/>
      </g>
    </g>
  </g>
</svg>