<?xml version="1.0" encoding="UTF-8"?>
<svg id="Layer_2" data-name="Layer 2" xmlns="http://www.w3.org/2000/svg" viewBox="0 0 771.48 193.5">
  <defs>
    <style>
      .cls-1 {
        fill: #fff;
      }
    </style>
  </defs>
  <g id="Layer_1-2" data-name="Layer 1">
    <g>
      <g>
        <path class="cls-1" d="M181.66,103.58c-4.69,0-8.5-3.81-8.5-8.5,0-9.05-1.53-17.91-4.55-26.34-1.58-4.42,.72-9.29,5.14-10.87,4.42-1.58,9.29,.72,10.87,5.14,3.68,10.27,5.55,21.06,5.55,32.07,0,4.69-3.81,8.5-8.5,8.5Z"/>
        <path class="cls-1" d="M8.5,103.58c-4.69,0-8.5-3.81-8.5-8.5C0,42.65,42.65,0,95.08,0c13.6,0,26.74,2.82,39.05,8.37,12.27,5.53,23.46,13.82,32.38,23.96,3.1,3.53,2.75,8.9-.77,12-3.53,3.1-8.9,2.75-12-.77-7.33-8.34-16.53-15.15-26.6-19.69-10.1-4.55-20.89-6.86-32.07-6.86-43.05,0-78.08,35.03-78.08,78.08,0,4.69-3.81,8.5-8.5,8.5Z"/>
      </g>
      <path class="cls-1" d="M174.38,133.37c-16.45-26.28-45.66-43.76-78.95-43.76s-62.51,17.47-78.96,43.76c-1.96,3.12-1.95,7.08,0,10.2,6.97,11.12,16.22,20.67,27.09,27.97l-7.24,16.33c-1.5,3.38,2.01,6.82,5.36,5.24l23.26-10.89c9.55,3.31,19.81,5.11,30.49,5.11,33.28,0,62.49-17.48,78.95-43.77,1.95-3.11,1.95-7.07,0-10.19Zm-62.29,41.98l-1.35,1.71c-1.19,1.51-3.45,1.63-4.8,.25l-3.75-3.86c-.61-.62-1.43-.97-2.3-.97h-5.12c-.75,0-1.47-.26-2.04-.74l-6.43-5.35c-1.48-1.23-1.55-3.48-.14-4.79l7.93-7.43c.83-.78,2-1.06,3.09-.74l7.54,2.22c1.81,.53,2.77,2.5,2.07,4.25l-1.6,3.98c-.58,1.46-.01,3.13,1.34,3.94l4.69,2.8c1.66,.99,2.07,3.21,.87,4.73Zm1.72-64.27c-2.09-2.34-5.58-5.45-7.67-2.97-2.36,2.8-12.58,3.94-17.49,4.33-1.58,.12-2.89,1.28-3.2,2.83l-4.44,22.04c-.2,.97-.79,1.81-1.64,2.33l-20.42,12.34c-2.38,1.43-5.4-.3-5.37-3.07l.1-9.36v-.03c0-1.17-.58-2.27-1.54-2.93-1.42-.97-1.94-2.81-1.24-4.37l3.19-7.12c.85-1.88-.09-4.08-2.03-4.78l-3.64-1.31c-2.84-1.02-3.19-4.87-.59-6.39,9.42-5.51,27.66-14.98,42.85-15.69,13.33-.62,25.66,2.64,33.12,5.22,2.93,1.01,3.22,5.04,.47,6.48l-6.18,3.23c-1.44,.75-3.2,.43-4.28-.78Zm52.45,26.69l-4.36,9c-.73,1.52-2.18,2.56-3.86,2.79l-9.48,1.25c-.75,.1-1.47,.37-2.1,.79l-7.9,5.19c-3.07,2.02-7.2,.17-7.73-3.47l-.91-6.25c-.3-2.07-1.85-3.73-3.89-4.18h-.02c-3.98-.89-5.32-5.9-2.29-8.64l4.42-4.01c1.76-1.6,2.17-4.21,.96-6.26-.31-.54-.64-1.1-.96-1.65-1.33-2.32-.61-5.29,1.65-6.74l7.79-5c1.59-1.02,3.63-1.08,5.26-.12,12.37,7.29,20.07,17.68,23.12,22.37,.96,1.48,1.07,3.35,.3,4.93Z"/>
      <g>
        <rect class="cls-1" x="89.08" y="47.12" width="12" height="33.07" rx="6" ry="6"/>
        <rect class="cls-1" x="107.71" y="53.78" width="12" height="20.91" rx="6" ry="6"/>
        <rect class="cls-1" x="70.45" y="53.78" width="12" height="20.91" rx="6" ry="6"/>
        <rect class="cls-1" x="126.34" y="56.85" width="12" height="14.78" rx="6" ry="6"/>
        <rect class="cls-1" x="51.82" y="56.85" width="12" height="14.78" rx="6" ry="6"/>
      </g>
      <g>
        <path class="cls-1" d="M293.84,104.86v.35c0,4.24-3.44,7.68-7.68,7.68h-50.16c-4.24,0-7.68-3.44-7.68-7.68V35.94c0-4.24,3.44-7.68,7.68-7.68h48.6c4.24,0,7.68,3.44,7.68,7.68v.35c0,4.24-3.44,7.68-7.68,7.68h-36.81v18.25h31.6c4.24,0,7.68,3.44,7.68,7.68h0c0,4.24-3.44,7.68-7.68,7.68h-31.6v19.58h38.38c4.24,0,7.68,3.44,7.68,7.68Z"/>
        <path class="cls-1" d="M387.07,37.93V103.22c0,5.34-4.33,9.67-9.67,9.67h-1.95c-2.9,0-5.64-1.3-7.48-3.54l-35.46-43.26c-1.25-1.52-3.72-.64-3.72,1.33v35.8c0,5.34-4.33,9.67-9.67,9.67h0c-5.34,0-9.67-4.33-9.67-9.67V37.93c0-5.34,4.33-9.67,9.67-9.67h1.95c2.9,0,5.65,1.3,7.48,3.54l35.46,43.28c1.25,1.53,3.72,.64,3.72-1.33V37.93c0-5.34,4.33-9.67,9.67-9.67h0c5.34,0,9.67,4.33,9.67,9.67Z"/>
        <path class="cls-1" d="M472.9,69.25h.75c4.73,0,8.57,3.84,8.57,8.57v22.61c0,2.05-1.02,3.97-2.74,5.09-4,2.61-8.45,4.64-13.34,6.12-6.04,1.81-12.09,2.72-18.13,2.72-6.7,0-12.86-1.08-18.5-3.2-5.65-2.14-10.52-5.18-14.63-9.13-4.12-3.95-7.32-8.58-9.61-13.91-2.31-5.32-3.45-11.16-3.45-17.53s1.14-12.21,3.45-17.54c2.29-5.32,5.54-9.95,9.73-13.9,4.18-3.95,9.1-7,14.75-9.13,5.63-2.14,11.85-3.2,18.62-3.2,7.5,0,14.25,1.25,20.26,3.75,2.68,1.11,5.17,2.45,7.47,4.02,4.48,3.04,4.81,9.55,.85,13.24h0c-2.99,2.79-7.5,3.02-10.85,.68-1.59-1.11-3.23-2.03-4.92-2.76-3.63-1.58-7.62-2.37-11.97-2.37-4.04,0-7.75,.67-11.13,2-3.39,1.32-6.3,3.2-8.76,5.62-2.46,2.41-4.34,5.29-5.68,8.58-1.34,3.31-1.99,6.97-1.99,11.01s.65,7.47,1.99,10.81c1.34,3.36,3.22,6.23,5.68,8.66,2.46,2.41,5.36,4.31,8.7,5.68,3.34,1.37,7.03,2.05,11.07,2.05s7.64-.64,11.3-1.93h0c2.36-.84,3.93-3.08,3.93-5.58v-12.46c0-4.73,3.84-8.57,8.57-8.57Z"/>
        <path class="cls-1" d="M500.36,100.84V38.11c0-5.44,4.41-9.85,9.85-9.85h0c5.44,0,9.85,4.41,9.85,9.85v54.65c0,2.31,1.87,4.18,4.18,4.18h30.04c4.41,0,7.98,3.57,7.98,7.98h0c0,4.41-3.57,7.98-7.98,7.98h-41.87c-6.66,0-12.06-5.4-12.06-12.06Z"/>
        <path class="cls-1" d="M573.51,103.04V38.11c0-5.44,4.41-9.85,9.85-9.85h0c5.44,0,9.85,4.41,9.85,9.85V103.04c0,5.44-4.41,9.85-9.85,9.85h0c-5.44,0-9.85-4.41-9.85-9.85Z"/>
        <path class="cls-1" d="M641.09,114.35c-6.77,0-13.28-.91-19.53-2.72-3-.87-5.71-1.86-8.14-2.98-4.03-1.86-5.76-6.65-3.94-10.69h0c1.83-4.07,6.63-5.96,10.68-4.08,1.81,.84,3.75,1.6,5.81,2.28,5,1.65,10.04,2.48,15.11,2.48,3.87,0,6.99-.4,9.37-1.21,2.38-.81,4.13-1.87,5.26-3.2,1.13-1.33,1.69-2.88,1.69-4.66,0-2.26-.89-4.05-2.66-5.38-1.77-1.33-4.13-2.42-7.07-3.26-2.94-.85-6.15-1.65-9.61-2.42-3.47-.77-6.95-1.69-10.46-2.78-3.51-1.09-6.73-2.54-9.67-4.35-2.94-1.81-5.28-4.19-7.01-7.13-1.73-2.94-2.6-6.63-2.6-11.06,0-4.84,1.29-9.25,3.87-13.24,2.58-3.99,6.51-7.17,11.79-9.55,5.28-2.38,11.91-3.57,19.89-3.57,5.32,0,10.58,.65,15.78,1.93,2.1,.52,4.09,1.14,5.98,1.84,4.32,1.62,6.49,6.44,4.71,10.69h0c-1.69,4.04-6.28,5.95-10.37,4.38-1.52-.58-3.05-1.08-4.61-1.5-4.03-1.09-7.9-1.63-11.61-1.63s-6.97,.42-9.31,1.27c-2.34,.85-4.05,2-5.14,3.45-1.09,1.45-1.63,3.06-1.63,4.84,0,2.26,.89,4.07,2.66,5.44,1.77,1.37,4.11,2.44,7.01,3.2,2.9,.77,6.13,1.53,9.67,2.3,3.55,.77,7.05,1.71,10.52,2.84,3.47,1.13,6.65,2.56,9.55,4.29,2.9,1.73,5.26,4.07,7.07,7.01,1.81,2.94,2.72,6.59,2.72,10.94,0,4.76-1.31,9.11-3.93,13.06-2.62,3.95-6.59,7.13-11.91,9.55-5.32,2.42-11.97,3.63-19.95,3.63Z"/>
        <path class="cls-1" d="M767.81,38.05V103.1c0,5.41-4.39,9.8-9.8,9.8h0c-5.41,0-9.8-4.39-9.8-9.8v-24.91h-38.33v24.91c0,5.41-4.39,9.8-9.8,9.8h-.11c-5.41,0-9.8-4.39-9.8-9.8V38.05c0-5.41,4.39-9.8,9.8-9.8h.11c5.41,0,9.8,4.39,9.8,9.8v23.59h38.33v-23.59c0-5.41,4.39-9.8,9.8-9.8h0c5.41,0,9.8,4.39,9.8,9.8Z"/>
        <g>
          <path class="cls-1" d="M228.64,171.54v-36.94h28.31v6.86h-19.59v30.08h-8.72Zm8.03-13.46v-6.86h17.98v6.86h-17.98Z"/>
          <path class="cls-1" d="M262.83,171.54v-36.94h8.72v29.98h18.68v6.97h-27.4Z"/>
          <path class="cls-1" d="M311.05,172.18c-5.32,0-9.47-1.46-12.47-4.38-3-2.92-4.49-7.11-4.49-12.56v-20.64h8.72v20.42c0,3.48,.73,6.01,2.19,7.57,1.46,1.57,3.5,2.35,6.1,2.35s4.69-.78,6.15-2.35c1.46-1.56,2.19-4.09,2.19-7.57v-20.42h8.51v20.64c0,5.45-1.5,9.64-4.5,12.56-3,2.92-7.14,4.38-12.42,4.38Z"/>
          <path class="cls-1" d="M336.58,171.54v-36.94h28.31v6.86h-19.69v23.22h20.39v6.86h-29Zm7.97-15.41v-6.7h18.03v6.7h-18.03Z"/>
          <path class="cls-1" d="M372.48,171.54v-36.94h7.17l22.1,26.6h-3.48v-26.6h8.56v36.94h-7.17l-22.1-26.6h3.48v26.6h-8.56Z"/>
          <path class="cls-1" d="M433.65,172.18c-2.89,0-5.57-.47-8.05-1.4-2.48-.93-4.63-2.26-6.45-3.99-1.82-1.72-3.24-3.75-4.25-6.07-1.02-2.32-1.53-4.87-1.53-7.65s.51-5.33,1.53-7.65c1.02-2.32,2.44-4.35,4.28-6.07,1.84-1.72,4-3.05,6.48-3.99,2.48-.93,5.16-1.4,8.05-1.4,3.25,0,6.19,.55,8.83,1.66,2.64,1.11,4.85,2.74,6.64,4.88l-5.62,5.07c-1.25-1.44-2.67-2.53-4.26-3.27-1.59-.74-3.31-1.11-5.16-1.11-1.75,0-3.35,.29-4.82,.87-1.46,.58-2.73,1.4-3.8,2.45-1.07,1.06-1.9,2.3-2.49,3.75s-.88,3.04-.88,4.8,.29,3.36,.88,4.8c.59,1.44,1.42,2.69,2.49,3.75,1.07,1.05,2.34,1.87,3.8,2.45,1.46,.58,3.07,.87,4.82,.87,1.86,0,3.58-.38,5.16-1.14,1.59-.75,3-1.86,4.26-3.3l5.62,5.07c-1.78,2.15-4,3.78-6.64,4.91s-5.6,1.69-8.88,1.69Z"/>
          <path class="cls-1" d="M462.65,171.54v-15.1l1.98,5.17-16.54-27.02h9.26l12.63,20.69h-5.3l12.68-20.69h8.46l-16.43,27.02,1.98-5.17v15.1h-8.72Z"/>
          <path class="cls-1" d="M511.62,172.18c-2.53,0-4.86-.47-6.98-1.4-2.12-.93-3.86-2.28-5.22-4.04l4.82-5.65c1,1.34,2.08,2.34,3.24,3.01,1.16,.67,2.4,1,3.72,1,3.53,0,5.3-2.02,5.3-6.07v-17.57h-13.11v-6.86h21.78v23.96c0,4.57-1.15,7.99-3.45,10.24-2.3,2.25-5.66,3.38-10.09,3.38Z"/>
          <path class="cls-1" d="M551.86,172.18c-2.96,0-5.69-.47-8.19-1.43s-4.67-2.29-6.53-4.01c-1.86-1.72-3.29-3.75-4.31-6.07-1.02-2.32-1.53-4.86-1.53-7.6s.51-5.32,1.53-7.63c1.02-2.3,2.45-4.32,4.31-6.04,1.86-1.72,4.02-3.06,6.5-4.01,2.48-.95,5.2-1.43,8.16-1.43s5.68,.47,8.16,1.4c2.48,.93,4.65,2.26,6.5,3.99,1.86,1.72,3.29,3.75,4.31,6.07,1.02,2.32,1.52,4.87,1.52,7.65s-.51,5.29-1.52,7.63c-1.02,2.34-2.45,4.37-4.31,6.1-1.86,1.72-4.02,3.05-6.5,3.99-2.48,.93-5.18,1.4-8.11,1.4Zm-.05-7.23c1.68,0,3.22-.29,4.63-.87,1.41-.58,2.65-1.41,3.72-2.48,1.07-1.07,1.9-2.32,2.49-3.75s.88-3.02,.88-4.78-.3-3.35-.88-4.78-1.42-2.67-2.49-3.75c-1.07-1.07-2.31-1.9-3.72-2.48-1.41-.58-2.95-.87-4.63-.87s-3.23,.29-4.66,.87c-1.43,.58-2.67,1.41-3.72,2.48-1.05,1.07-1.87,2.32-2.46,3.75s-.88,3.02-.88,4.78,.29,3.35,.88,4.78,1.41,2.67,2.46,3.75c1.05,1.07,2.29,1.9,3.72,2.48,1.43,.58,2.98,.87,4.66,.87Z"/>
          <path class="cls-1" d="M595.47,172.18c-5.32,0-9.47-1.46-12.47-4.38-3-2.92-4.5-7.11-4.5-12.56v-20.64h8.72v20.42c0,3.48,.73,6.01,2.19,7.57,1.46,1.57,3.5,2.35,6.1,2.35s4.69-.78,6.15-2.35c1.46-1.56,2.19-4.09,2.19-7.57v-20.42h8.51v20.64c0,5.45-1.5,9.64-4.5,12.56-3,2.92-7.14,4.38-12.42,4.38Z"/>
          <path class="cls-1" d="M621,171.54v-36.94h16c5.21,0,9.26,1.19,12.15,3.56s4.34,5.64,4.34,9.79c0,2.78-.66,5.16-1.98,7.15-1.32,1.99-3.19,3.5-5.62,4.54-2.43,1.04-5.32,1.56-8.67,1.56h-11.45l3.96-3.69v14.04h-8.72Zm8.72-13.09l-3.96-4.07h10.97c2.64,0,4.64-.56,5.99-1.69s2.03-2.71,2.03-4.75-.68-3.62-2.03-4.72-3.35-1.66-5.99-1.66h-10.97l3.96-4.06v20.95Zm15.14,13.09l-9.42-13.41h9.31l9.42,13.41h-9.31Z"/>
          <path class="cls-1" d="M660.38,171.54v-36.94h7.17l22.1,26.6h-3.48v-26.6h8.56v36.94h-7.17l-22.1-26.6h3.48v26.6h-8.56Z"/>
          <path class="cls-1" d="M703.62,171.54v-36.94h28.31v6.86h-19.69v23.22h20.39v6.86h-29Zm7.97-15.41v-6.7h18.03v6.7h-18.03Z"/>
          <path class="cls-1" d="M748.31,171.54v-15.1l1.98,5.17-16.54-27.02h9.26l12.63,20.69h-5.3l12.68-20.69h8.46l-16.43,27.02,1.98-5.17v15.1h-8.72Z"/>
        </g>
      </g>
    </g>
  </g>
</svg>