<?xml version="1.0" encoding="UTF-8"?>
<svg id="Layer_2" data-name="Layer 2" xmlns="http://www.w3.org/2000/svg" viewBox="0 0 586.42 193.5">
  <defs>
    <style>
      .cls-1 {
        fill: none;
        stroke: #921b1e;
        stroke-linecap: round;
        stroke-linejoin: round;
        stroke-width: 17px;
      }

      .cls-2 {
        fill: #e02127;
      }

      .cls-3 {
        fill: #921b1e;
      }

      .cls-4 {
        fill: #871719;
      }
    </style>
  </defs>
  <g id="Layer_1-2" data-name="Layer 1">
    <g>
      <path class="cls-1" d="M176.61,65.88c3.27,9.12,5.05,18.96,5.05,29.2"/>
      <path class="cls-1" d="M8.5,95.08C8.5,47.26,47.26,8.5,95.08,8.5c12.67,0,24.71,2.72,35.56,7.62,11.34,5.11,21.38,12.6,29.49,21.83"/>
    </g>
    <path class="cls-3" d="M174.38,133.37c1.95,3.12,1.95,7.07,0,10.19-16.46,26.29-45.67,43.77-78.95,43.77-10.68,0-20.94-1.8-30.49-5.11l-23.25,10.9c-3.35,1.57-6.86-1.86-5.36-5.25l7.23-16.33c-10.87-7.3-20.12-16.85-27.08-27.97-1.95-3.12-1.96-7.08,0-10.2,16.45-26.29,45.67-43.76,78.96-43.76s62.5,17.48,78.95,43.76Z"/>
    <path class="cls-2" d="M48.42,119.01l3.64,1.31c1.94,.7,2.88,2.9,2.03,4.78l-3.19,7.11c-.7,1.56-.18,3.41,1.23,4.37h0c.98,.67,1.56,1.78,1.54,2.96l-.1,9.36c-.03,2.77,3,4.51,5.37,3.07l20.42-12.34c.85-.51,1.44-1.36,1.64-2.33l4.44-22.04c.31-1.55,1.62-2.71,3.2-2.83,4.92-.39,15.14-1.53,17.49-4.32,2.09-2.49,5.59,.63,7.67,2.96,1.08,1.21,2.84,1.54,4.28,.78l6.18-3.23c2.75-1.44,2.46-5.47-.47-6.48-7.45-2.57-19.79-5.84-33.12-5.21-15.19,.71-33.43,10.18-42.85,15.69-2.6,1.52-2.25,5.37,.59,6.39Z"/>
    <path class="cls-2" d="M94.09,154.16l-7.93,7.43c-1.4,1.31-1.34,3.56,.14,4.79l6.43,5.35c.57,.48,1.3,.74,2.05,.74h5.12c.86,0,1.69,.35,2.29,.97l3.75,3.85c1.35,1.38,3.61,1.27,4.8-.25l1.35-1.71c1.2-1.52,.79-3.74-.87-4.73l-4.69-2.8c-1.35-.81-1.92-2.48-1.33-3.94l1.59-3.98c.7-1.75-.26-3.73-2.07-4.26l-7.54-2.21c-1.09-.32-2.26-.04-3.09,.73Z"/>
    <path class="cls-2" d="M137.58,110.58l-7.8,5.01c-2.25,1.45-2.98,4.41-1.64,6.73,.32,.55,.65,1.11,.96,1.65,1.2,2.05,.8,4.66-.96,6.26l-4.43,4.01c-3.02,2.74-1.69,7.75,2.29,8.63h.02c2.04,.45,3.59,2.12,3.89,4.19l.91,6.25c.53,3.64,4.66,5.5,7.74,3.48l7.89-5.2c.63-.42,1.35-.68,2.1-.78l9.48-1.25c1.67-.22,3.13-1.27,3.86-2.79l4.36-8.99c.77-1.59,.65-3.45-.31-4.93-3.05-4.69-10.74-15.08-23.12-22.37-1.63-.96-3.67-.9-5.25,.12Z"/>
    <g>
      <rect class="cls-3" x="89.08" y="47.12" width="12" height="33.07" rx="6" ry="6"/>
      <rect class="cls-3" x="107.71" y="53.78" width="12" height="20.91" rx="6" ry="6"/>
      <rect class="cls-3" x="70.45" y="53.78" width="12" height="20.91" rx="6" ry="6"/>
      <rect class="cls-3" x="126.34" y="56.85" width="12" height="14.78" rx="6" ry="6"/>
      <rect class="cls-3" x="51.82" y="56.85" width="12" height="14.78" rx="6" ry="6"/>
    </g>
    <g>
      <path class="cls-4" d="M271.92,115.83v.23c0,2.79-2.27,5.06-5.06,5.06h-33.03c-2.79,0-5.06-2.27-5.06-5.06v-45.61c0-2.79,2.27-5.06,5.06-5.06h32c2.79,0,5.06,2.27,5.06,5.06v.23c0,2.79-2.27,5.06-5.06,5.06h-24.24v12.02h20.81c2.79,0,5.06,2.27,5.06,5.06h0c0,2.79-2.27,5.06-5.06,5.06h-20.81v12.89h25.27c2.79,0,5.06,2.27,5.06,5.06Z"/>
      <path class="cls-4" d="M333.31,71.76v42.99c0,3.52-2.85,6.37-6.37,6.37h-1.28c-1.91,0-3.72-.86-4.93-2.33l-23.35-28.49c-.82-1-2.45-.42-2.45,.88v23.57c0,3.52-2.85,6.37-6.37,6.37h0c-3.52,0-6.37-2.85-6.37-6.37v-42.99c0-3.52,2.85-6.37,6.37-6.37h1.28c1.91,0,3.72,.86,4.93,2.33l23.35,28.5c.82,1,2.45,.42,2.45-.88v-23.58c0-3.52,2.85-6.37,6.37-6.37h0c3.52,0,6.37,2.85,6.37,6.37Z"/>
      <path class="cls-4" d="M389.82,92.38h.49c3.12,0,5.64,2.53,5.64,5.64v14.89c0,1.35-.67,2.61-1.8,3.35-2.63,1.72-5.56,3.06-8.79,4.03-3.98,1.19-7.96,1.79-11.94,1.79-4.41,0-8.47-.71-12.18-2.11-3.72-1.41-6.93-3.41-9.63-6.01-2.71-2.6-4.82-5.65-6.33-9.16-1.52-3.5-2.27-7.35-2.27-11.54s.75-8.04,2.27-11.55c1.51-3.5,3.65-6.55,6.41-9.15,2.75-2.6,5.99-4.61,9.71-6.01,3.71-1.41,7.8-2.11,12.26-2.11,4.94,0,9.38,.82,13.34,2.47,1.76,.73,3.4,1.61,4.92,2.65,2.95,2,3.17,6.29,.56,8.72h0c-1.97,1.83-4.94,1.99-7.14,.44-1.04-.73-2.12-1.34-3.24-1.82-2.39-1.04-5.02-1.56-7.88-1.56-2.66,0-5.1,.44-7.33,1.32-2.23,.87-4.15,2.11-5.77,3.7-1.62,1.59-2.86,3.48-3.74,5.65-.88,2.18-1.31,4.59-1.31,7.25s.43,4.92,1.31,7.12c.88,2.21,2.12,4.1,3.74,5.7,1.62,1.59,3.53,2.84,5.73,3.74,2.2,.9,4.63,1.35,7.29,1.35s5.03-.42,7.44-1.27h0c1.55-.55,2.59-2.03,2.59-3.68v-8.2c0-3.12,2.53-5.64,5.64-5.64Z"/>
      <path class="cls-4" d="M407.9,113.18v-41.3c0-3.58,2.9-6.49,6.49-6.49h0c3.58,0,6.49,2.9,6.49,6.49v35.98c0,1.52,1.23,2.75,2.75,2.75h19.78c2.9,0,5.25,2.35,5.25,5.25h0c0,2.9-2.35,5.25-5.25,5.25h-27.57c-4.38,0-7.94-3.55-7.94-7.94Z"/>
      <path class="cls-4" d="M456.07,114.63v-42.75c0-3.58,2.9-6.49,6.49-6.49h0c3.58,0,6.49,2.9,6.49,6.49v42.75c0,3.58-2.9,6.49-6.49,6.49h0c-3.58,0-6.49-2.9-6.49-6.49Z"/>
      <path class="cls-4" d="M500.57,122.08c-4.46,0-8.75-.6-12.86-1.79-1.97-.57-3.76-1.23-5.36-1.97-2.65-1.22-3.79-4.38-2.59-7.04h0c1.21-2.68,4.37-3.92,7.03-2.69,1.19,.55,2.47,1.05,3.83,1.5,3.29,1.09,6.61,1.63,9.95,1.63,2.55,0,4.6-.26,6.17-.8,1.57-.53,2.72-1.23,3.46-2.11,.74-.88,1.11-1.9,1.11-3.07,0-1.49-.58-2.67-1.75-3.54-1.17-.88-2.72-1.59-4.66-2.15-1.94-.56-4.05-1.09-6.33-1.59-2.28-.5-4.58-1.11-6.89-1.83s-4.43-1.67-6.37-2.87c-1.94-1.19-3.48-2.76-4.62-4.7-1.14-1.94-1.71-4.37-1.71-7.28,0-3.18,.85-6.09,2.55-8.72,1.7-2.63,4.29-4.72,7.76-6.29,3.48-1.56,7.84-2.35,13.1-2.35,3.5,0,6.97,.43,10.39,1.27,1.38,.34,2.7,.75,3.94,1.21,2.84,1.07,4.27,4.24,3.1,7.04h0c-1.11,2.66-4.14,3.92-6.83,2.89-1-.38-2.01-.71-3.03-.99-2.65-.72-5.2-1.08-7.64-1.08s-4.59,.28-6.13,.84c-1.54,.56-2.67,1.31-3.38,2.27-.72,.96-1.07,2.02-1.07,3.18,0,1.49,.58,2.68,1.75,3.58,1.17,.9,2.71,1.61,4.62,2.11,1.91,.5,4.03,1.01,6.37,1.51,2.33,.5,4.64,1.13,6.93,1.87,2.28,.74,4.38,1.69,6.29,2.83,1.91,1.14,3.46,2.68,4.66,4.62,1.19,1.94,1.79,4.34,1.79,7.21,0,3.13-.86,6-2.59,8.6-1.73,2.6-4.34,4.7-7.84,6.29-3.5,1.59-7.88,2.39-13.14,2.39Z"/>
      <path class="cls-4" d="M584.01,71.84v42.83c0,3.56-2.89,6.45-6.45,6.45h0c-3.56,0-6.45-2.89-6.45-6.45v-16.4h-25.24v16.4c0,3.56-2.89,6.45-6.45,6.45h-.07c-3.56,0-6.45-2.89-6.45-6.45v-42.83c0-3.56,2.89-6.45,6.45-6.45h.07c3.56,0,6.45,2.89,6.45,6.45v15.53h25.24v-15.53c0-3.56,2.89-6.45,6.45-6.45h0c3.56,0,6.45,2.89,6.45,6.45Z"/>
    </g>
    <g>
      <path class="cls-2" d="M228.99,159.74v-24.33h18.64v4.52h-12.9v19.81h-5.74Zm5.29-8.86v-4.52h11.84v4.52h-11.84Z"/>
      <path class="cls-2" d="M251.5,159.74v-24.33h5.74v19.74h12.3v4.59h-18.04Z"/>
      <path class="cls-2" d="M283.25,160.15c-3.5,0-6.24-.96-8.21-2.88-1.97-1.92-2.96-4.68-2.96-8.27v-13.59h5.74v13.45c0,2.29,.48,3.96,1.44,4.99,.96,1.03,2.3,1.55,4.02,1.55s3.09-.52,4.05-1.55c.96-1.03,1.44-2.69,1.44-4.99v-13.45h5.6v13.59c0,3.59-.99,6.35-2.96,8.27-1.97,1.92-4.7,2.88-8.17,2.88Z"/>
      <path class="cls-2" d="M300.06,159.74v-24.33h18.64v4.52h-12.97v15.29h13.43v4.52h-19.1Zm5.25-10.15v-4.41h11.87v4.41h-11.87Z"/>
      <path class="cls-2" d="M323.7,159.74v-24.33h4.72l14.55,17.51h-2.29v-17.51h5.64v24.33h-4.72l-14.55-17.51h2.29v17.51h-5.64Z"/>
      <path class="cls-2" d="M363.98,160.15c-1.9,0-3.67-.31-5.3-.92-1.63-.61-3.05-1.49-4.25-2.62-1.2-1.13-2.13-2.47-2.8-4-.67-1.53-1-3.21-1-5.04s.33-3.51,1-5.04c.67-1.53,1.61-2.86,2.82-4,1.21-1.14,2.63-2.01,4.26-2.62,1.63-.61,3.4-.92,5.3-.92,2.14,0,4.08,.36,5.81,1.09,1.74,.73,3.19,1.8,4.37,3.21l-3.7,3.34c-.82-.95-1.76-1.67-2.8-2.16-1.05-.49-2.18-.73-3.4-.73-1.15,0-2.21,.19-3.17,.57-.96,.38-1.8,.92-2.5,1.62-.71,.7-1.25,1.52-1.64,2.47s-.58,2-.58,3.16,.19,2.21,.58,3.16c.39,.95,.93,1.77,1.64,2.47,.7,.69,1.54,1.23,2.5,1.62,.96,.38,2.02,.57,3.17,.57,1.22,0,2.35-.25,3.4-.75,1.04-.5,1.98-1.22,2.8-2.17l3.7,3.34c-1.17,1.41-2.63,2.49-4.37,3.23s-3.69,1.11-5.85,1.11Z"/>
      <path class="cls-2" d="M383.08,159.74v-9.94l1.3,3.41-10.89-17.79h6.1l8.32,13.62h-3.49l8.35-13.62h5.57l-10.82,17.79,1.3-3.41v9.94h-5.74Z"/>
      <path class="cls-2" d="M415.32,160.15c-1.67,0-3.2-.31-4.6-.92-1.4-.61-2.54-1.5-3.44-2.66l3.17-3.72c.66,.88,1.37,1.54,2.13,1.98,.76,.44,1.58,.66,2.45,.66,2.33,0,3.49-1.33,3.49-4v-11.57h-8.63v-4.52h14.34v15.78c0,3.01-.76,5.26-2.27,6.74-1.52,1.48-3.73,2.22-6.64,2.22Z"/>
      <path class="cls-2" d="M441.81,160.15c-1.95,0-3.75-.31-5.39-.94s-3.08-1.51-4.3-2.64c-1.22-1.13-2.17-2.47-2.84-4-.67-1.53-1-3.2-1-5s.33-3.5,1-5.02c.67-1.52,1.61-2.84,2.84-3.98,1.22-1.13,2.65-2.02,4.28-2.64,1.63-.63,3.42-.94,5.37-.94s3.74,.31,5.37,.92c1.63,.61,3.06,1.49,4.28,2.62,1.22,1.13,2.17,2.47,2.84,4,.67,1.53,1,3.21,1,5.04s-.33,3.48-1,5.02c-.67,1.54-1.62,2.88-2.84,4.01-1.22,1.14-2.65,2.01-4.28,2.62-1.63,.61-3.41,.92-5.34,.92Zm-.04-4.76c1.1,0,2.12-.19,3.05-.57,.93-.38,1.74-.93,2.45-1.63,.71-.71,1.25-1.53,1.64-2.47s.58-1.99,.58-3.14-.19-2.21-.58-3.15-.93-1.76-1.64-2.47c-.7-.71-1.52-1.25-2.45-1.63-.93-.38-1.94-.57-3.05-.57s-2.13,.19-3.07,.57c-.94,.38-1.76,.93-2.45,1.63-.69,.71-1.23,1.53-1.62,2.47s-.58,1.99-.58,3.15,.19,2.21,.58,3.14,.93,1.76,1.62,2.47c.69,.71,1.51,1.25,2.45,1.63,.94,.38,1.96,.57,3.07,.57Z"/>
      <path class="cls-2" d="M470.53,160.15c-3.5,0-6.24-.96-8.21-2.88-1.97-1.92-2.96-4.68-2.96-8.27v-13.59h5.74v13.45c0,2.29,.48,3.96,1.44,4.99,.96,1.03,2.3,1.55,4.02,1.55s3.09-.52,4.05-1.55c.96-1.03,1.44-2.69,1.44-4.99v-13.45h5.6v13.59c0,3.59-.99,6.35-2.96,8.27-1.97,1.92-4.7,2.88-8.17,2.88Z"/>
      <path class="cls-2" d="M487.34,159.74v-24.33h10.54c3.43,0,6.1,.78,8,2.35s2.85,3.71,2.85,6.45c0,1.83-.44,3.4-1.3,4.71-.87,1.31-2.1,2.31-3.7,2.99-1.6,.68-3.5,1.03-5.71,1.03h-7.54l2.61-2.43v9.24h-5.74Zm5.74-8.62l-2.61-2.68h7.22c1.74,0,3.05-.37,3.95-1.11s1.34-1.78,1.34-3.13-.45-2.38-1.34-3.11-2.21-1.09-3.95-1.09h-7.22l2.61-2.68v13.8Zm9.97,8.62l-6.2-8.83h6.13l6.2,8.83h-6.13Z"/>
      <path class="cls-2" d="M513.27,159.74v-24.33h4.72l14.55,17.51h-2.29v-17.51h5.64v24.33h-4.72l-14.55-17.51h2.29v17.51h-5.64Z"/>
      <path class="cls-2" d="M541.74,159.74v-24.33h18.64v4.52h-12.97v15.29h13.42v4.52h-19.1Zm5.25-10.15v-4.41h11.88v4.41h-11.88Z"/>
      <path class="cls-2" d="M571.17,159.74v-9.94l1.3,3.41-10.89-17.79h6.1l8.32,13.62h-3.49l8.35-13.62h5.57l-10.82,17.79,1.3-3.41v9.94h-5.74Z"/>
    </g>
  </g>
</svg>